<svg width="132" height="28" viewBox="0 0 132 28" fill="none" xmlns="http://www.w3.org/2000/svg">
<g clip-path="url(#clip0_11168_7759)">
<mask id="mask0_11168_7759" style="mask-type:luminance" maskUnits="userSpaceOnUse" x="10" y="11" width="7" height="6">
<path d="M11.2 12.121C10.7703 12.5981 10.5164 13.2093 10.4809 13.8523C10.4453 14.4953 10.6303 15.131 11.0049 15.6531C11.3794 16.1752 11.9208 16.552 12.5383 16.7203C13.1559 16.8887 13.8121 16.8384 14.3972 16.5779C14.9824 16.3174 15.4608 15.8625 15.7525 15.2893C16.0442 14.7161 16.1314 14.0595 15.9996 13.4294C15.8677 12.7992 15.5249 12.2337 15.0283 11.8277C14.5317 11.4216 13.9117 11.1995 13.2719 11.1986C12.8814 11.1985 12.4952 11.2809 12.1383 11.4405C11.7815 11.6 11.4618 11.8332 11.2 12.1248" fill="white"/>
</mask>
<g mask="url(#mask0_11168_7759)">
<path d="M16.375 11.1949H10.168V17.1266H16.375V11.1949Z" fill="url(#paint0_radial_11168_7759)"/>
</g>
<mask id="mask1_11168_7759" style="mask-type:luminance" maskUnits="userSpaceOnUse" x="1" y="2" width="14" height="13">
<path d="M5.28562 3.32366C3.44636 4.7199 1.99806 6.57217 1.08203 8.69976C2.18587 8.97328 5.48615 10.0551 7.00604 14.1749C7.46238 14.0259 8.44441 13.4496 9.12658 11.2227C10.0411 8.24232 11.7756 5.37507 14.0255 4.41397C12.6752 3.06901 11.0663 2.33899 9.22778 2.33899C8.00962 2.33899 6.69775 2.6559 5.28562 3.32178" fill="white"/>
</mask>
<g mask="url(#mask1_11168_7759)">
<path d="M4.92467 -3.61072L19.3991 5.85081L10.1893 20.1247L-4.28516 10.6632L4.92467 -3.61072Z" fill="url(#paint1_linear_11168_7759)"/>
</g>
<mask id="mask2_11168_7759" style="mask-type:luminance" maskUnits="userSpaceOnUse" x="5" y="0" width="19" height="8">
<path d="M5.28516 3.32204C10.2012 1.00076 13.9889 2.91551 16.3092 7.75522C20.0042 8.42208 22.5138 6.57147 23.5024 5.47638C21.3238 2.82819 18.2152 1.12672 14.8226 0.72552C11.43 0.324319 8.01427 1.25423 5.28516 3.32204Z" fill="white"/>
</mask>
<g mask="url(#mask2_11168_7759)">
<path d="M7.84261 -5.7345L26.191 1.72738L20.947 14.793L2.59766 7.33016L7.84261 -5.7345Z" fill="url(#paint2_linear_11168_7759)"/>
</g>
<mask id="mask3_11168_7759" style="mask-type:luminance" maskUnits="userSpaceOnUse" x="4" y="18" width="13" height="10">
<path d="M8.08343 26.3007C10.2034 27.2065 12.5206 27.5435 14.8086 27.2788C14.4928 26.18 13.7713 22.7582 16.5581 19.3769C16.2011 19.0543 15.2134 18.4856 12.9579 19.0044C9.93691 19.6966 6.60289 19.6174 4.65009 18.1376C3.84985 21.2104 4.87498 24.0503 8.08343 26.3007Z" fill="white"/>
</mask>
<g mask="url(#mask3_11168_7759)">
<path d="M3.88702 17.4698L3.35938 27.5204L16.5212 28.209L17.0488 18.1584L3.88702 17.4698Z" fill="url(#paint3_linear_11168_7759)"/>
</g>
<mask id="mask4_11168_7759" style="mask-type:luminance" maskUnits="userSpaceOnUse" x="0" y="9" width="9" height="18">
<path d="M1.78096 20.6834C3.21825 23.1986 5.43293 25.1721 8.08765 26.3032C3.63455 23.1754 3.38809 18.9196 6.39149 14.477C5.11797 10.9219 2.26825 9.65894 0.834488 9.34485C0.151984 11.1881 -0.11709 13.1605 0.0465387 15.1208C0.210167 17.081 0.802448 18.9806 1.78096 20.6834Z" fill="white"/>
</mask>
<g mask="url(#mask4_11168_7759)">
<path d="M7.92329 8.14368L-2.8125 9.67102L-0.308199 27.4868L10.4276 25.9594L7.92329 8.14368Z" fill="url(#paint4_linear_11168_7759)"/>
</g>
<mask id="mask5_11168_7759" style="mask-type:luminance" maskUnits="userSpaceOnUse" x="16" y="6" width="11" height="14">
<path d="M16.2658 8.44867C16.1664 8.92026 16.1721 10.0662 17.7454 11.7734C19.8518 14.0606 21.4505 17.0061 21.1534 19.4489C24.1979 18.6095 26.1282 16.2959 26.4599 12.3751C26.1789 10.0739 25.3102 7.8853 23.9383 6.02283C23.1512 6.8481 20.5649 9.18718 16.2658 8.44961" fill="white"/>
</mask>
<g mask="url(#mask5_11168_7759)">
<path d="M24.3391 1.83273L10.7695 8.78845L18.2904 23.638L31.86 16.6823L24.3391 1.83273Z" fill="url(#paint5_linear_11168_7759)"/>
</g>
<mask id="mask6_11168_7759" style="mask-type:luminance" maskUnits="userSpaceOnUse" x="15" y="12" width="12" height="16">
<path d="M17.1336 19.767C14.7123 22.654 15.0497 25.7674 15.4966 27.1765C18.8649 26.602 21.8836 24.7431 23.9254 21.9862C25.9672 19.2294 26.875 15.7866 26.4601 12.3734C25.999 17.8184 22.4579 20.1631 17.1346 19.766" fill="white"/>
</mask>
<g mask="url(#mask6_11168_7759)">
<path d="M22.219 6.47503L7.57422 17.9857L19.2955 33.0787L33.9403 21.568L22.219 6.47503Z" fill="url(#paint6_linear_11168_7759)"/>
</g>
<path d="M35.1431 21.0486H32.1445V6.95285H36.9656C37.7678 6.94385 38.5677 7.03895 39.3457 7.23581C39.9992 7.39831 40.6144 7.68902 41.1561 8.09127C41.6572 8.47542 42.0531 8.98137 42.3068 9.56167C42.5729 10.159 42.7063 10.8604 42.7069 11.6659C42.72 12.3917 42.5801 13.1121 42.2965 13.7795C42.0297 14.3883 41.6216 14.9236 41.1064 15.3405C40.5425 15.7854 39.8966 16.1136 39.2061 16.3063C38.386 16.538 37.5372 16.6502 36.6855 16.6393H35.1431V21.0486ZM35.0831 13.9814H36.7267C37.6325 13.9814 38.3393 13.8034 38.8472 13.4476C39.3551 13.0917 39.6084 12.538 39.6072 11.7866C39.6072 10.9944 39.3604 10.4338 38.8669 10.1049C38.3734 9.77609 37.6665 9.61166 36.7464 9.61166H35.0859L35.0831 13.9814Z" fill="#292929"/>
<path d="M51.7862 21.2895C50.8422 21.3018 49.9038 21.142 49.0163 20.8179C48.2038 20.5183 47.4676 20.0405 46.8611 19.4192C46.2395 18.7667 45.7652 17.9869 45.4705 17.1329C45.1432 16.2275 44.9798 15.184 44.9805 14.0025C44.9811 12.8211 45.1513 11.7773 45.4912 10.8712C45.7988 10.0179 46.2809 9.2391 46.9061 8.58495C47.5061 7.96774 48.2331 7.4903 49.036 7.18622C49.8898 6.86498 50.7951 6.70511 51.7066 6.71464C52.7873 6.71464 53.7509 6.88252 54.5974 7.21829C55.4091 7.53029 56.1406 8.02221 56.7376 8.65757C57.3389 9.31841 57.7926 10.1012 58.0682 10.9533C58.387 11.9377 58.5424 12.9682 58.5283 14.0035C58.5283 15.2516 58.3581 16.3356 58.0176 17.2556C57.7184 18.11 57.2338 18.8865 56.5989 19.5286C55.9921 20.1257 55.2611 20.5796 54.4587 20.8575C53.5985 21.1524 52.6949 21.2984 51.7862 21.2895ZM51.8865 18.6316C52.3679 18.6362 52.845 18.5399 53.2874 18.3487C53.7176 18.1576 54.0952 17.864 54.3875 17.4932C54.7171 17.0663 54.9591 16.5777 55.0996 16.0558C55.2777 15.3862 55.3619 14.6947 55.3498 14.0016C55.3498 12.4039 55.0162 11.2328 54.3491 10.4883C53.6819 9.7438 52.8011 9.37124 51.7066 9.37061C51.2287 9.36788 50.7553 9.4642 50.316 9.65357C49.8777 9.84519 49.4905 10.1383 49.1859 10.509C48.8425 10.9371 48.5876 11.43 48.4363 11.9587C48.2453 12.6222 48.154 13.3108 48.1655 14.0016C48.1514 14.6976 48.2492 15.3913 48.455 16.0558C48.6209 16.5836 48.8894 17.0729 49.245 17.4951C49.5669 17.869 49.9712 18.162 50.4256 18.3506C50.889 18.5407 51.3852 18.6369 51.8856 18.6335" fill="#292929"/>
<path d="M71.9766 20.4894C71.7892 20.5831 71.5859 20.6774 71.3666 20.7723C71.1128 20.8771 70.8519 20.9637 70.586 21.0317C70.2441 21.1189 69.8966 21.1819 69.5459 21.2203C69.0975 21.2696 68.6467 21.2929 68.1956 21.2901C67.2064 21.3026 66.2223 21.146 65.2852 20.827C64.4499 20.5415 63.6857 20.0779 63.0447 19.4679C62.4065 18.8431 61.9145 18.083 61.6044 17.243C61.264 16.3576 61.0938 15.3374 61.0938 14.1824C61.0938 12.9738 61.264 11.9033 61.6044 10.9708C61.9062 10.0897 62.4063 9.29071 63.0656 8.63626C63.7249 7.98181 64.5256 7.48963 65.4051 7.19815C66.4015 6.863 67.4469 6.69973 68.4974 6.71524C69.1859 6.70859 69.8732 6.77594 70.5476 6.91614C71.0524 7.01862 71.5451 7.17383 72.0178 7.37924L71.3572 9.91638C70.9339 9.76936 70.4983 9.66108 70.0557 9.59287C69.6785 9.53108 69.2974 9.49735 68.9153 9.49195C68.2758 9.48449 67.6389 9.57286 67.0253 9.75415C66.4845 9.91468 65.9859 10.194 65.5653 10.5719C65.1436 10.9629 64.818 11.4472 64.6142 11.9866C64.3875 12.5595 64.2744 13.2357 64.275 14.0154C64.275 15.5081 64.6917 16.6315 65.525 17.3854C66.3584 18.1393 67.4828 18.5166 68.8984 18.5172C69.2883 18.5098 69.6767 18.4659 70.0585 18.3861C70.5128 18.2989 70.956 18.1606 71.3797 17.9739L71.9766 20.4894Z" fill="#292929"/>
<path d="M83.3755 17.9676H77.995L76.9942 21.048H74.0312L78.8158 6.95227H82.7158L87.4366 21.0471H84.3762L83.3755 17.9676ZM78.8158 15.3097H82.5584L80.6955 9.38943L78.8158 15.3097Z" fill="#292929"/>
<path d="M94.2593 21.0471H91.2589V9.73086H87.2773V6.95227H98.2202V9.73086H94.2593V21.0471Z" fill="#292929"/>
<path d="M106.422 21.2886C105.478 21.3008 104.539 21.141 103.651 20.817C102.841 20.5165 102.107 20.0387 101.502 19.4183C100.88 18.766 100.405 17.9861 100.111 17.132C99.7838 16.2265 99.6205 15.1831 99.6211 14.0016C99.6217 12.8201 99.7916 11.7763 100.131 10.8703C100.437 10.0185 100.915 9.2402 101.536 8.58495C102.137 7.96771 102.864 7.49029 103.667 7.18622C104.521 6.86498 105.426 6.70511 106.338 6.71464C107.417 6.71464 108.381 6.88252 109.229 7.21829C110.04 7.53029 110.772 8.02221 111.369 8.65757C111.97 9.31822 112.424 10.1011 112.699 10.9533C113.018 11.9376 113.173 12.9682 113.159 14.0035C113.159 15.2516 112.989 16.3356 112.649 17.2556C112.35 18.1093 111.867 18.8855 111.233 19.5277C110.626 20.1247 109.895 20.5786 109.093 20.8566C108.233 21.1517 107.33 21.298 106.422 21.2895M106.522 18.6316C107.004 18.6361 107.48 18.5398 107.922 18.3487C108.353 18.1581 108.731 17.8644 109.022 17.4932C109.352 17.0656 109.593 16.5763 109.733 16.0539C109.911 15.3844 109.996 14.6929 109.983 13.9997C109.983 12.402 109.65 11.2309 108.983 10.4864C108.317 9.74191 107.436 9.36936 106.343 9.36873C105.865 9.36589 105.391 9.46221 104.952 9.65168C104.513 9.84305 104.126 10.1362 103.822 10.5071C103.478 10.935 103.223 11.4279 103.072 11.9568C102.881 12.6207 102.79 13.3096 102.802 14.0007C102.788 14.6966 102.886 15.3903 103.092 16.0549C103.258 16.5826 103.527 17.0718 103.883 17.4942C104.204 17.8682 104.608 18.1612 105.063 18.3496C105.526 18.5398 106.023 18.6359 106.523 18.6326" fill="#292929"/>
<path d="M131.89 21.0479H128.869L128.109 11.6844L125.229 21.0479H122.368L119.526 11.725L118.767 21.0479H115.746L117.146 6.95227H120.727L123.888 17.5843L127.009 6.95227H130.47L131.89 21.0479Z" fill="#292929"/>
</g>
<defs>
<radialGradient id="paint0_radial_11168_7759" cx="0" cy="0" r="1" gradientUnits="userSpaceOnUse" gradientTransform="translate(12.4069 12.9737) scale(3.92623 3.9519)">
<stop stop-color="#4A96D2"/>
<stop offset="1" stop-color="#1F2466"/>
</radialGradient>
<linearGradient id="paint1_linear_11168_7759" x1="7.23293" y1="12.3171" x2="13.8974" y2="2.12182" gradientUnits="userSpaceOnUse">
<stop stop-color="#4A96D2"/>
<stop offset="1" stop-color="#1F2466"/>
</linearGradient>
<linearGradient id="paint2_linear_11168_7759" x1="7.12166" y1="-0.216109" x2="23.5564" y2="6.38093" gradientUnits="userSpaceOnUse">
<stop stop-color="#4A96D2"/>
<stop offset="1" stop-color="#1F2466"/>
</linearGradient>
<linearGradient id="paint3_linear_11168_7759" x1="16.1273" y1="22.6582" x2="4.02024" y2="22.0226" gradientUnits="userSpaceOnUse">
<stop stop-color="#4A96D2"/>
<stop offset="1" stop-color="#1F2466"/>
</linearGradient>
<linearGradient id="paint4_linear_11168_7759" x1="5.36189" y1="26.5606" x2="2.85407" y2="8.933" gradientUnits="userSpaceOnUse">
<stop stop-color="#4A96D2"/>
<stop offset="1" stop-color="#1F2466"/>
</linearGradient>
<linearGradient id="paint5_linear_11168_7759" x1="19.2014" y1="6.90595" x2="24.761" y2="17.752" gradientUnits="userSpaceOnUse">
<stop stop-color="#4A96D2"/>
<stop offset="1" stop-color="#1F2466"/>
</linearGradient>
<linearGradient id="paint6_linear_11168_7759" x1="26.7562" y1="13.1451" x2="12.7475" y2="24.0243" gradientUnits="userSpaceOnUse">
<stop stop-color="#4A96D2"/>
<stop offset="1" stop-color="#1F2466"/>
</linearGradient>
<clipPath id="clip0_11168_7759">
<rect width="132" height="26.7342" fill="white" transform="translate(0 0.632935)"/>
</clipPath>
</defs>
</svg>
